<svg width="136" height="54" viewBox="0 0 136 54" fill="none" xmlns="http://www.w3.org/2000/svg">
<path d="M36.026 34.7541C36.1183 34.7404 36.3359 34.7082 36.6789 34.6574C37.0331 34.5915 37.4212 34.5274 37.8432 34.4649C38.2653 34.4024 38.6874 34.34 39.1094 34.2775C39.5296 34.2018 39.8715 34.1445 40.1353 34.1055C41.8236 33.8556 43.1435 34.0309 44.095 34.6314C45.0445 35.2187 45.614 36.1521 45.8033 37.4315C46.0122 38.8428 45.6945 39.9748 44.8503 40.8276C44.0041 41.6672 42.7566 42.209 41.1079 42.453L40.5144 42.5409L41.2727 47.665L38.0083 48.1482L36.026 34.7541ZM40.1952 40.3843L41.0261 40.2614C41.4746 40.195 41.8412 39.9857 42.1261 39.6336C42.409 39.2682 42.5016 38.7558 42.404 38.0963C42.322 37.5423 42.1123 37.0814 41.7748 36.7135C41.4505 36.3437 40.9708 36.199 40.3358 36.2795C40.1643 36.3049 40.0202 36.333 39.9034 36.3637C39.7847 36.3813 39.6868 36.4025 39.6096 36.4274L40.1952 40.3843Z" fill="#0081FF"/>
<path d="M50.0384 32.5711C50.1581 32.5621 50.3974 32.5443 50.7564 32.5175C51.1144 32.4773 51.5128 32.4409 51.9516 32.4081C52.3904 32.3753 52.8158 32.3436 53.228 32.3128C53.6392 32.2687 53.9578 32.2382 54.1839 32.2213C55.8858 32.0942 57.1866 32.3246 58.0862 32.9125C58.9858 33.5005 59.4833 34.4327 59.5787 35.7091C59.6422 36.5601 59.4888 37.2802 59.1183 37.8694C58.7469 38.4454 58.2202 38.9126 57.5383 39.271C57.9541 39.4673 58.3288 39.7401 58.6624 40.0896C58.9961 40.439 59.3224 40.8692 59.6413 41.3802C59.9593 41.8779 60.2832 42.4554 60.6131 43.1126C60.9562 43.7689 61.331 44.4897 61.7373 45.2749L58.2071 45.5386C57.7121 44.6397 57.292 43.8488 56.9468 43.1659C56.6007 42.4698 56.2834 41.8918 55.995 41.432C55.7056 40.9589 55.4257 40.6121 55.1552 40.3917C54.897 40.1569 54.595 40.0524 54.2493 40.0783L53.9103 40.1036L54.3379 45.8276L51.047 46.0735L50.0384 32.5711ZM53.7568 38.0493L54.5945 37.9867C55.0599 37.952 55.4417 37.7831 55.7399 37.48C56.0505 37.1627 56.1829 36.6982 56.1372 36.0865C56.1184 35.8339 56.0677 35.6037 55.9854 35.3959C55.9153 35.1739 55.8078 34.988 55.6629 34.8384C55.5171 34.6755 55.321 34.5564 55.0747 34.4812C54.8407 34.3917 54.5575 34.3594 54.2251 34.3842L53.4872 34.4394L53.7568 38.0493Z" fill="#0081FF"/>
<path d="M63.4613 31.5954L66.761 31.552L66.9392 45.0908L63.6395 45.1343L63.4613 31.5954Z" fill="#0081FF"/>
<path d="M78.5732 45.5674L76.0779 45.414L74.6567 41.4794C74.6233 41.3704 74.5553 41.1726 74.4527 40.8857C74.3642 40.5864 74.2579 40.2526 74.1336 39.8843C74.0234 39.5034 73.907 39.1156 73.7843 38.7206C73.6616 38.3257 73.5502 37.9648 73.4501 37.6381C73.4288 37.9841 73.4043 38.3833 73.3765 38.8358C73.3487 39.2883 73.3204 39.7474 73.2918 40.2132C73.2632 40.679 73.2295 41.1178 73.1908 41.5295C73.1655 41.9421 73.1388 42.2677 73.1107 42.5064L72.844 45.2152L69.8097 45.0286L71.4391 31.5632L74.2738 31.7375L76.9092 39.7143C76.9877 39.9595 77.0866 40.3063 77.206 40.7544C77.3395 41.1901 77.4639 41.6653 77.5792 42.18C77.7558 41.6966 77.9305 41.2465 78.103 40.8296C78.2897 40.4003 78.4441 40.0624 78.5661 39.8161L82.1589 32.2223L84.9336 32.3929L84.9012 45.9565L81.8071 45.7662L81.8542 43.044C81.8565 42.7903 81.8636 42.4568 81.8757 42.0434C81.901 41.6309 81.9276 41.1984 81.9554 40.7459C81.9841 40.2801 82.0123 39.821 82.0401 39.3685C82.0821 38.9035 82.1133 38.5047 82.1337 38.172C82.0101 38.4449 81.8707 38.7569 81.7155 39.1081C81.5744 39.4467 81.4271 39.7783 81.2736 40.1028C81.1201 40.4273 80.9744 40.7323 80.8366 41.0177C80.6997 41.2898 80.593 41.5037 80.5167 41.6593L78.5732 45.5674Z" fill="#0081FF"/>
<path d="M91.8446 33.5067L100.372 34.7687L100.017 37.1626L94.7548 36.3838L94.3302 39.2525L98.7026 39.8996L97.9782 42.1983L93.9818 41.6069L93.4811 44.99L99.0207 45.8099L98.6665 48.2038L89.8623 46.9008L91.8446 33.5067Z" fill="#0081FF"/>
<path d="M15.8545 30.2443L12.7396 30.7L9.97126 26.218C9.90197 26.0924 9.76705 25.8661 9.5665 25.5391C9.38012 25.1931 9.16275 24.8091 8.91438 24.3873C8.6802 23.9465 8.43649 23.4985 8.18326 23.0435C7.93003 22.5884 7.69949 22.1725 7.49164 21.7956C7.55484 22.2276 7.62775 22.726 7.71039 23.2908C7.79303 23.8557 7.87688 24.4288 7.96195 25.0103C8.04701 25.5917 8.11891 26.1412 8.17765 26.6586C8.25299 27.1736 8.30423 27.5818 8.33137 27.8833L8.7026 31.2906L4.91482 31.8448L3.44342 14.8284L6.982 14.3107L12.2913 23.4606C12.4513 23.7426 12.6628 24.1443 12.9258 24.6658C13.2029 25.1683 13.479 25.7218 13.7541 26.3264C13.847 25.6849 13.9459 25.0851 14.0508 24.5267C14.17 23.9493 14.2729 23.4931 14.3596 23.158L16.8252 12.8706L20.2891 12.3638L23.754 29.0886L19.8915 29.6537L19.2462 26.2865C19.1834 25.9733 19.106 25.5604 19.014 25.0478C18.9387 24.5328 18.8597 23.9928 18.7771 23.428C18.692 22.8465 18.6081 22.2734 18.5255 21.7086C18.457 21.1247 18.3924 20.6251 18.3317 20.2097C18.2498 20.578 18.1586 20.9986 18.0581 21.4715C17.9718 21.9253 17.8759 22.372 17.7706 22.8117C17.6652 23.2513 17.5645 23.6648 17.4685 24.0522C17.37 24.4229 17.2938 24.714 17.2399 24.9255L15.8545 30.2443Z" fill="#F0283C"/>
<path d="M35.7971 10.3441C37.1183 10.2263 38.2734 10.3255 39.2624 10.6418C40.2515 10.9582 41.0882 11.4567 41.7726 12.1373C42.457 12.8179 42.9891 13.6807 43.3688 14.7257C43.7639 15.7524 44.0203 16.9264 44.1381 18.2475C44.2545 19.552 44.1939 20.7626 43.9564 21.8795C43.7341 22.9781 43.3312 23.9412 42.7476 24.7686C42.164 25.5961 41.3982 26.2712 40.4503 26.7941C39.5009 27.3002 38.3573 27.6129 37.0194 27.7322C35.6983 27.8501 34.5363 27.7683 33.5335 27.4869C32.546 27.1873 31.7107 26.7055 31.0278 26.0416C30.3434 25.3609 29.8044 24.5156 29.4109 23.5056C29.0341 22.4941 28.7861 21.3194 28.6667 19.9815C28.5504 18.6771 28.6026 17.4672 28.8234 16.3518C29.0594 15.2182 29.4685 14.2294 30.0506 13.3852C30.6312 12.5243 31.3954 11.8324 32.3433 11.3096C33.308 10.7853 34.4592 10.4634 35.7971 10.3441ZM35.7077 13.3104C34.6207 13.4074 33.8718 13.9883 33.4611 15.0532C33.0656 16.0999 32.9477 17.5179 33.1073 19.3073C33.1834 20.1602 33.3029 20.9334 33.4659 21.6268C33.6456 22.3188 33.884 22.9128 34.1811 23.4088C34.4935 23.8867 34.8881 24.2476 35.365 24.4916C35.8419 24.7356 36.4231 24.8271 37.1088 24.7659C38.1958 24.6689 38.9386 24.1138 39.337 23.1006C39.7355 22.0874 39.8549 20.6861 39.6953 18.8967C39.6192 18.0438 39.4906 17.263 39.3094 16.5543C39.1449 15.8442 38.9057 15.2418 38.5919 14.7472C38.2933 14.2345 37.9056 13.8561 37.4287 13.612C36.9503 13.3513 36.3767 13.2507 35.7077 13.3104Z" fill="#F0283C"/>
<path d="M57.7359 26.0714L54.2126 26.2064L47.1929 9.41257L51.5718 9.24483L54.0971 15.953C54.4719 16.9636 54.8024 17.9171 55.0888 18.8134C55.3745 19.693 55.6135 20.4484 55.8057 21.0795C55.949 20.4355 56.1298 19.6725 56.3481 18.7904C56.5663 17.9083 56.8397 16.9317 57.1684 15.8606L59.2224 8.95176L63.4504 8.78979L57.7359 26.0714Z" fill="#F0283C"/>
<path d="M66.7005 8.74731L70.856 8.752L70.8368 25.8021L66.6813 25.7974L66.7005 8.74731Z" fill="#F0283C"/>
<path d="M75.5648 8.86377L86.412 9.26706L86.2987 12.3124L79.6042 12.0635L79.4685 15.7128L85.0305 15.9196L84.441 18.8967L79.3572 18.7077L79.1972 23.0113L86.2441 23.2733L86.1308 26.3186L74.9313 25.9022L75.5648 8.86377Z" fill="#F0283C"/>
<path d="M91.6618 9.78247L102.483 10.6372L102.245 13.65L95.5665 13.1225L95.2591 17.014L100.858 17.4563L100.12 20.4043L95.0231 20.0017L94.4618 27.1069L90.3192 26.7796L91.6618 9.78247Z" fill="#F0283C"/>
<path d="M107.858 11.4307L111.987 11.9024L110.052 28.8423L105.923 28.3707L107.858 11.4307Z" fill="#F0283C"/>
<path d="M116.066 29.6714L122.648 21.6349L119.146 12.8942L123.627 13.5807L125.34 18.2C125.388 18.3264 125.439 18.4955 125.491 18.7073C125.563 18.9051 125.642 19.1125 125.727 19.3295C125.872 19.1647 125.999 18.9974 126.11 18.8276C126.238 18.6603 126.353 18.5166 126.456 18.3965L129.502 14.4808L133.983 15.1674L127.996 22.4798L131.874 32.0934L127.343 31.3992L125.318 25.9931C125.255 25.8477 125.188 25.676 125.117 25.4782C125.048 25.2638 124.97 25.0481 124.884 24.8311L124.148 25.8139L120.597 30.3656L116.066 29.6714Z" fill="#F0283C"/>
</svg>
